<svg height="512pt" viewBox="0 0 512 512" width="512pt" xmlns="http://www.w3.org/2000/svg"><path d="m475.734375 503.464844h-439.46875c-15.316406 0-27.730469-12.414063-27.730469-27.730469v-373.335937h494.929688v373.335937c0 15.316406-12.414063 27.730469-27.730469 27.730469zm0 0" fill="#e7eced"/><path d="m503.464844 110.933594h-494.929688v-74.667969c0-15.316406 12.414063-27.730469 27.730469-27.730469h439.46875c15.316406 0 27.730469 12.414063 27.730469 27.730469zm0 0" fill="#556080"/><path d="m42.667969 42.667969h34.132812v34.132812h-34.132812zm0 0" fill="#dd352e"/><path d="m110.933594 42.667969h34.132812v34.132812h-34.132812zm0 0" fill="#ebba16"/><path d="m179.199219 42.667969h34.132812v34.132812h-34.132812zm0 0" fill="#23a24d"/><path d="m59.734375 247.464844h315.730469v85.335937h-315.730469zm0 0" fill="#fff"/><path d="m315.734375 247.464844h136.53125v85.335937h-136.53125zm0 0" fill="#25ae88"/><g fill="#4d007e"><path d="m256 443.734375c-18.824219 0-34.132812-15.308594-34.132812-34.132813 0-18.824218 15.308593-34.136718 34.132812-34.136718s34.132812 15.3125 34.132812 34.136718c0 18.824219-15.308593 34.132813-34.132812 34.132813zm0-51.199219c-9.414062 0-17.066406 7.652344-17.066406 17.066406 0 9.410157 7.652344 17.066407 17.066406 17.066407s17.066406-7.65625 17.066406-17.066407c0-9.414062-7.652344-17.066406-17.066406-17.066406zm0 0"/><path d="m452.265625 341.332031h-392.53125c-4.710937 0-8.535156-3.820312-8.535156-8.53125v-85.335937c0-4.707032 3.824219-8.53125 8.535156-8.53125h392.53125c4.710937 0 8.535156 3.824218 8.535156 8.53125v85.335937c0 4.710938-3.824219 8.53125-8.535156 8.53125zm-384-17.066406h375.46875v-68.265625h-375.46875zm0 0"/><path d="m315.734375 170.667969h-119.46875c-4.710937 0-8.53125-3.824219-8.53125-8.535157 0-4.710937 3.820313-8.53125 8.53125-8.53125h119.46875c4.710937 0 8.53125 3.820313 8.53125 8.53125 0 4.710938-3.820313 8.535157-8.53125 8.535157zm0 0"/><path d="m341.332031 204.800781h-170.664062c-4.710938 0-8.535157-3.824219-8.535157-8.535156s3.824219-8.53125 8.535157-8.53125h170.664062c4.710938 0 8.535157 3.820313 8.535157 8.53125s-3.824219 8.535156-8.535157 8.535156zm0 0"/><path d="m452.265625 341.332031h-136.53125c-4.710937 0-8.535156-3.820312-8.535156-8.53125v-85.335937c0-4.707032 3.824219-8.53125 8.535156-8.53125h136.53125c4.710937 0 8.535156 3.824218 8.535156 8.53125v85.335937c0 4.710938-3.824219 8.53125-8.535156 8.53125zm-128-17.066406h119.46875v-68.265625h-119.46875zm0 0"/><path d="m298.667969 460.800781c-2.1875 0-4.371094-.835937-6.035157-2.5l-17.066406-17.066406c-3.335937-3.335937-3.335937-8.730469 0-12.066406 3.335938-3.335938 8.730469-3.335938 12.066406 0l17.066407 17.066406c3.335937 3.335937 3.335937 8.730469 0 12.066406-1.664063 1.664063-3.847657 2.5-6.03125 2.5zm0 0"/><path d="m473.601562 512h-435.203124c-21.167969 0-38.398438-17.230469-38.398438-38.398438v-435.203124c0-21.167969 17.230469-38.398438 38.398438-38.398438h435.203124c21.167969 0 38.398438 17.230469 38.398438 38.398438v435.203124c0 21.167969-17.230469 38.398438-38.398438 38.398438zm-435.203124-494.933594c-11.757813 0-21.332032 9.574219-21.332032 21.332032v435.203124c0 11.757813 9.574219 21.332032 21.332032 21.332032h435.203124c11.765626 0 21.332032-9.574219 21.332032-21.332032v-435.203124c0-11.757813-9.574219-21.332032-21.332032-21.332032zm0 0"/><path d="m76.800781 85.332031h-34.132812c-4.710938 0-8.535157-3.820312-8.535157-8.53125v-34.132812c0-4.710938 3.824219-8.535157 8.535157-8.535157h34.132812c4.710938 0 8.53125 3.824219 8.53125 8.535157v34.132812c0 4.710938-3.820312 8.53125-8.53125 8.53125zm-25.601562-17.066406h17.066406v-17.066406h-17.066406zm0 0"/><path d="m145.066406 85.332031h-34.132812c-4.710938 0-8.535156-3.820312-8.535156-8.53125v-34.132812c0-4.710938 3.824218-8.535157 8.535156-8.535157h34.132812c4.710938 0 8.535156 3.824219 8.535156 8.535157v34.132812c0 4.710938-3.824218 8.53125-8.535156 8.53125zm-25.601562-17.066406h17.070312v-17.066406h-17.070312zm0 0"/><path d="m213.332031 85.332031h-34.132812c-4.710938 0-8.53125-3.820312-8.53125-8.53125v-34.132812c0-4.710938 3.820312-8.535157 8.53125-8.535157h34.132812c4.710938 0 8.535157 3.824219 8.535157 8.535157v34.132812c0 4.710938-3.824219 8.53125-8.535157 8.53125zm-25.597656-17.066406h17.066406v-17.066406h-17.066406zm0 0"/><path d="m503.464844 119.464844h-494.929688c-4.710937 0-8.535156-3.820313-8.535156-8.53125v-72.535156c0-21.167969 17.230469-38.398438 38.398438-38.398438h435.203124c21.167969 0 38.398438 17.230469 38.398438 38.398438v72.535156c0 4.710937-3.824219 8.53125-8.535156 8.53125zm-486.398438-17.066406h477.867188v-64c0-11.757813-9.574219-21.332032-21.332032-21.332032h-435.203124c-11.757813 0-21.332032 9.574219-21.332032 21.332032zm0 0"/></g></svg>