<svg width="420" height="420" viewBox="0 0 420 420" fill="none" xmlns="http://www.w3.org/2000/svg">
<path fill-rule="evenodd" clip-rule="evenodd" d="M307.62 223.799L292.786 231.714L296.797 247.501L284.203 250.701V267.166H266.587L262.122 284.206L244.967 279.71L234.35 297.89L218.346 288.544L207.938 299.125L193.341 284.767L175.276 294.404L167.748 280.293L151.417 284.442L147.027 267.166H134.203V250.685L117.021 246.183L120.842 231.602L104.821 222.246L113.927 206.653L101 193.938L114.406 180.308L104.671 162.06L118.452 154.709L114.311 138.413L134.203 133.358V117.166H150.829L155.044 101.082L172.854 105.749L180.465 92.7163L193.231 100.172L206.187 87L219.965 100.552L237.015 91.4554L244.428 105.35L259.691 101.471L263.679 117.166H284.203V134.927L300.145 139.105L294.803 159.489L309.995 168.361L302.299 181.539L313.125 192.187L298.621 206.932L307.62 223.799Z" fill="url(#paint0_radial)"/>
<path fill-rule="evenodd" clip-rule="evenodd" d="M62.4093 144.102C73.3933 212.531 131.64 265.775 203.485 268.01C275.33 270.244 336.773 220.722 351.987 153.107C353.454 162.242 354.078 171.647 353.779 181.238C351.247 262.674 283.177 326.638 201.741 324.106C120.304 321.573 56.3402 253.503 58.8728 172.067C59.171 162.476 60.3783 153.128 62.4093 144.102Z" fill="#FFD80B"/>
<defs>
<radialGradient id="paint0_radial" cx="0" cy="0" r="1" gradientUnits="userSpaceOnUse" gradientTransform="translate(207.037 190) rotate(90) scale(86.5768)">
<stop offset="0.190191" stop-color="#EAFE00"/>
<stop offset="0.862066" stop-color="#FFD80B"/>
</radialGradient>
</defs>
</svg>
