<svg width="248" height="217" viewBox="0 0 248 217" fill="none" xmlns="http://www.w3.org/2000/svg">
<rect x="99.4754" y="84.4754" width="52" height="52" fill="#323031" stroke="#BBD8B3"/>
<rect x="106.915" y="78.7339" width="52" height="52" transform="rotate(14.6838 106.915 78.7339)" fill="#323031" stroke="#BBD8B3"/>
<rect x="115.987" y="75.7637" width="52" height="52" transform="rotate(30.2847 115.987 75.7637)" fill="#323031" stroke="#BBD8B3"/>
<rect x="125.172" y="73.7071" width="52" height="52" transform="rotate(44.5272 125.172 73.7071)" fill="#323031" stroke="#BBD8B3"/>
<rect x="136.177" y="75.2976" width="52" height="52" transform="rotate(61.9203 136.177 75.2976)" fill="#323031" stroke="#BBD8B3"/>
<rect x="144.271" y="78.873" width="52" height="52" transform="rotate(75.7427 144.271 78.873)" fill="#323031" stroke="#BBD8B3"/>
<circle cx="125.475" cy="110.475" r="31" fill="#323031" stroke="#BBD8B3"/>
<path fill-rule="evenodd" clip-rule="evenodd" d="M173.927 114C172.524 139.279 151.155 159.353 125 159.353C98.8446 159.353 77.4756 139.279 76.0732 114C75.3699 117.34 75 120.804 75 124.353C75 151.968 97.3858 174.353 125 174.353C152.614 174.353 175 151.968 175 124.353C175 120.804 174.63 117.34 173.927 114Z" fill="#323031"/>
<g clip-path="url(#clip0)">
<path d="M120.91 100.727C120.785 100.556 117.805 96.5383 113.999 96.5383C110.194 96.5383 107.214 100.556 107.089 100.727C106.97 100.889 106.97 101.109 107.089 101.272C107.214 101.443 110.194 105.461 113.999 105.461C117.805 105.461 120.785 101.443 120.91 101.272C121.029 101.11 121.029 100.889 120.91 100.727ZM113.999 104.538C111.196 104.538 108.768 101.871 108.049 100.999C108.767 100.127 111.19 97.4613 113.999 97.4613C116.803 97.4613 119.23 100.128 119.949 101C119.232 101.872 116.809 104.538 113.999 104.538Z" fill="#F3B61F"/>
<path d="M113.999 98.2305C112.473 98.2305 111.23 99.4727 111.23 101C111.23 102.526 112.473 103.769 113.999 103.769C115.526 103.769 116.768 102.526 116.768 101C116.768 99.4727 115.526 98.2305 113.999 98.2305ZM113.999 102.846C112.981 102.846 112.153 102.017 112.153 101C112.153 99.9816 112.982 99.1535 113.999 99.1535C115.017 99.1535 115.845 99.9816 115.845 101C115.845 102.017 115.017 102.846 113.999 102.846Z" fill="#F3B61F"/>
</g>
<g clip-path="url(#clip1)">
<path d="M144.91 100.727C144.785 100.556 141.805 96.5383 137.999 96.5383C134.194 96.5383 131.214 100.556 131.089 100.727C130.97 100.889 130.97 101.109 131.089 101.272C131.214 101.443 134.194 105.461 137.999 105.461C141.805 105.461 144.785 101.443 144.91 101.272C145.029 101.11 145.029 100.889 144.91 100.727ZM137.999 104.538C135.196 104.538 132.768 101.871 132.049 100.999C132.767 100.127 135.19 97.4613 137.999 97.4613C140.803 97.4613 143.23 100.128 143.949 101C143.232 101.872 140.809 104.538 137.999 104.538Z" fill="#F3B61F"/>
<path d="M137.999 98.2305C136.473 98.2305 135.23 99.4727 135.23 101C135.23 102.526 136.473 103.769 137.999 103.769C139.526 103.769 140.768 102.526 140.768 101C140.768 99.4727 139.526 98.2305 137.999 98.2305ZM137.999 102.846C136.981 102.846 136.153 102.017 136.153 101C136.153 99.9816 136.982 99.1535 137.999 99.1535C139.017 99.1535 139.845 99.9816 139.845 101C139.845 102.017 139.017 102.846 137.999 102.846Z" fill="#F3B61F"/>
<path d="M225.816 -68.983C229.633 -70.592 231.422 -74.991 229.813 -78.807C222.824 -95.384 214.186 -108.9 203.407 -120.127C184.841 -139.476 155.559 -159 131.994 -159C108.437 -159 79.159 -139.476 60.594 -120.129C6.97402 -64.282 23.538 26.552 -9.74197 88.18C-17.803 103.11 -28.542 116.292 -39.134 130.444C-41.616 133.76 -40.94 138.461 -37.624 140.943C-34.308 143.425 -29.608 142.749 -27.126 139.433C-16.599 125.367 -5.18898 111.319 3.45602 95.308C38.118 31.124 22.047 -58.324 71.415 -109.74C87.751 -126.766 113.804 -144 131.994 -144C150.192 -144 176.249 -126.766 192.586 -109.74C202.073 -99.859 209.729 -87.835 215.993 -72.98C217.602 -69.163 222 -67.373 225.816 -68.983Z" fill="black"/>
</g>
<path d="M130.229 116.496C129.928 116.092 129.567 115.726 129.322 115.311C128.812 114.445 128.807 113.375 128.535 112.399C128.511 112.313 128.416 112.26 128.321 112.282C128.227 112.304 128.171 112.392 128.195 112.478C128.468 113.461 128.465 114.534 129.013 115.464C129.274 115.907 129.642 116.279 129.938 116.677C130.188 117.013 130.774 117.801 130.745 118.241C130.701 118.905 130.3 119.439 129.997 119.439C129.995 119.439 129.995 119.439 129.994 119.439C129.856 119.369 129.834 118.591 129.044 118.591C128.382 118.591 128.12 119.104 128.015 119.708C127.972 119.949 127.769 120.13 127.605 120.24C127.527 120.293 127.51 120.394 127.568 120.465C127.625 120.537 127.735 120.553 127.813 120.5C128.076 120.323 128.252 120.112 128.329 119.884C128.763 119.931 129.266 119.817 129.662 119.568C129.733 119.676 129.833 119.762 129.997 119.762C130.539 119.762 131.042 119.074 131.096 118.261C131.128 117.777 130.698 117.126 130.229 116.496ZM128.402 119.567C128.57 118.913 128.897 118.913 129.044 118.913C129.313 118.913 129.415 119.045 129.516 119.267C129.196 119.489 128.763 119.598 128.402 119.567Z" fill="#F3B61F"/>
<path d="M126.983 120.526C126.669 120.624 126.32 120.678 126 120.678C125.249 120.678 124.091 120.347 123.979 119.675C123.844 118.946 123.509 118.591 122.956 118.591C122.164 118.591 122.143 119.373 122.006 119.439C122.006 119.439 122.005 119.439 122.003 119.439C121.864 119.439 121.691 119.316 121.551 119.119C121.384 118.883 121.276 118.563 121.255 118.241C121.238 117.978 121.438 117.549 121.851 116.967C121.903 116.892 121.88 116.792 121.799 116.744C121.718 116.695 121.609 116.716 121.556 116.791C121.089 117.451 120.881 117.918 120.904 118.261C120.958 119.074 121.461 119.762 122.003 119.762C122.167 119.762 122.267 119.676 122.338 119.568C122.715 119.805 123.216 119.933 123.671 119.884C123.906 120.577 125.026 121 126 121C126.357 121 126.746 120.94 127.096 120.831C127.188 120.803 127.237 120.711 127.206 120.627C127.175 120.543 127.075 120.498 126.983 120.526ZM122.484 119.267C122.585 119.045 122.687 118.913 122.956 118.913C123.103 118.913 123.43 118.913 123.597 119.567C123.237 119.598 122.804 119.489 122.484 119.267Z" fill="#F3B61F"/>
<path d="M128.199 111.934C128.288 111.899 128.33 111.805 128.292 111.723C128.129 111.367 127.926 111.076 127.674 110.835C127.238 110.419 126.552 110 126 110C125.448 110 124.762 110.419 124.326 110.835C123.07 112.035 123.458 113.986 122.678 115.311C122.489 115.631 122.237 115.914 121.989 116.219C121.931 116.29 121.947 116.391 122.024 116.444C122.102 116.497 122.212 116.483 122.27 116.412C122.517 116.109 122.785 115.808 122.987 115.464C123.8 114.085 123.423 112.163 124.58 111.058C124.963 110.693 125.574 110.322 126 110.322C126.426 110.322 127.037 110.693 127.42 111.058C127.642 111.271 127.822 111.529 127.969 111.848C128.006 111.93 128.109 111.969 128.199 111.934Z" fill="#F3B61F"/>
<defs>
<clipPath id="clip0">
<rect x="107" y="94" width="13.999" height="13.999" fill="white"/>
</clipPath>
<clipPath id="clip1">
<rect x="131" y="94" width="13.999" height="13.999" fill="white"/>
</clipPath>
</defs>
</svg>
